HIERARCHY
ROOT Hips
{
	OFFSET 0.000000 0.000000 0.000000
	CHANNELS 6 Xposition Yposition Zposition Zrotation Yrotation Xrotation 
	JOINT LowerBack
	{
		OFFSET 0.000000 0.000000 0.000000
		CHANNELS 3 Zrotation Yrotation Xrotation
		JOINT Spine
		{
			OFFSET 0.028270 2.035590 -0.193380
			CHANNELS 3 Zrotation Yrotation Xrotation
			JOINT Spine1
			{
				OFFSET 0.056720 2.048850 -0.042750
				CHANNELS 3 Zrotation Yrotation Xrotation
				JOINT Neck
				{
					OFFSET 0.000000 0.000000 0.000000
					CHANNELS 3 Zrotation Yrotation Xrotation
					JOINT Neck1
					{
						OFFSET -0.054170 1.746240 0.172020
						CHANNELS 3 Zrotation Yrotation Xrotation
						JOINT Head
						{
							OFFSET 0.104070 1.761360 -0.123970
							CHANNELS 3 Zrotation Yrotation Xrotation
							End Site
							{
								OFFSET 0.000000 0.000000 0.000000
							}
						}
					}
				}
				JOINT LeftShoulder
				{
					OFFSET 0.000000 0.000000 0.000000
					CHANNELS 3 Zrotation Yrotation Xrotation
					JOINT LeftArm
					{
						OFFSET 3.362410 1.200890 -0.311210
						CHANNELS 3 Zrotation Yrotation Xrotation
						JOINT LeftForeArm
						{
							OFFSET 4.983000 -0.000000 -0.000000
							CHANNELS 3 Zrotation Yrotation Xrotation
							JOINT LeftHand
							{
								OFFSET 3.483560 -0.000000 -0.000000
								CHANNELS 3 Zrotation Yrotation Xrotation
								JOINT LeftFingerBase
								{
									OFFSET 0.000000 0.000000 0.000000
									CHANNELS 3 Zrotation Yrotation Xrotation
									JOINT LeftHandIndex1
									{
										OFFSET 0.715260 -0.000000 -0.000000
										CHANNELS 3 Zrotation Yrotation Xrotation
										End Site
										{
											OFFSET 0.000000 0.000000 0.000000
										}
									}
								}
								JOINT LThumb
								{
									OFFSET 0.000000 0.000000 0.000000
									CHANNELS 3 Zrotation Yrotation Xrotation
									End Site
									{
										OFFSET 0.000000 0.000000 0.000000
									}
								}
							}
						}
					}
				}
				JOINT RightShoulder
				{
					OFFSET 0.000000 0.000000 0.000000
					CHANNELS 3 Zrotation Yrotation Xrotation
					JOINT RightArm
					{
						OFFSET -3.136600 1.374050 -0.404650
						CHANNELS 3 Zrotation Yrotation Xrotation
						JOINT RightForeArm
						{
							OFFSET -5.241900 -0.000000 -0.000000
							CHANNELS 3 Zrotation Yrotation Xrotation
							JOINT RightHand
							{
								OFFSET -3.444170 -0.000000 -0.000000
								CHANNELS 3 Zrotation Yrotation Xrotation
								JOINT RightFingerBase
								{
									OFFSET 0.000000 0.000000 0.000000
									CHANNELS 3 Zrotation Yrotation Xrotation
									JOINT RightHandIndex1
									{
										OFFSET -0.622530 -0.000000 -0.000000
										CHANNELS 3 Zrotation Yrotation Xrotation
										End Site
										{
											OFFSET 0.000000 0.000000 0.000000
										}
									}
								}
								JOINT RThumb
								{
									OFFSET 0.000000 0.000000 0.000000
									CHANNELS 3 Zrotation Yrotation Xrotation
									End Site
									{
										OFFSET 0.000000 0.000000 0.000000
									}
								}
							}
						}
					}
				}
			}
		}
	}
}
}
MOTION
Frames: 18
Frame Time: 0.008333
-10.972040 17.067256 0.215889 53.913265 84.709513 74.074733 6.119027 -2.673646 -5.170277 0.629801 -3.348042 -3.813637 -7.142131 -3.310578 0.240115 5.660850 -10.941249 -6.844378 -4.500879 -0.346361 0.182061 0.000000 0.000000 0.000000 1.117074 6.224516 0.849736 -57.331681 -18.341308 30.512939 -178.969922 -78.257579 179.964153 4.886067 0.034314 -0.017558 -0.271918 0.522926 0.000000 0.000000 0.000000 0.000000 0.000000 0.000000 0.000000 13.321618 -7.390363 0.046887 69.106622 -0.600603 1.574314 0.562774 74.596138 -0.012823 -4.144501 4.767576 -0.185094 0.070071 -0.295057 0.000000 0.000000 0.000000 0.000000 0.000000 0.000000 0.000000 
-10.770660 17.011585 0.232660 55.997146 84.655846 75.961145 6.242249 -2.678522 -5.080976 0.632974 -3.361690 -3.798991 -7.232383 -3.322942 0.203956 5.428314 -10.726336 -6.904857 -4.629406 -0.354681 0.155136 0.000000 0.000000 0.000000 0.851327 6.207590 0.939383 -56.484480 -18.688332 30.012745 -178.898135 -77.639841 179.966216 4.653765 -0.146727 -0.024863 -0.269472 0.534020 -0.000000 0.000000 0.000000 0.000000 0.000000 0.000000 0.000000 13.700492 -7.191277 0.132077 69.035054 -0.464111 0.900097 0.602361 73.320757 -0.016464 -5.081059 4.662712 -0.222096 0.080664 -0.290207 0.000000 0.000000 0.000000 0.000000 0.000000 0.000000 0.000000 
-10.571908 16.961694 0.248292 58.857618 84.672057 78.593074 6.359318 -2.708913 -4.945758 0.636606 -3.397785 -3.778996 -7.316531 -3.359211 0.154877 5.218936 -10.475498 -6.942432 -4.757721 -0.363049 0.133766 0.000000 0.000000 0.000000 0.559631 6.168024 1.027109 -55.759848 -18.935383 29.480149 -178.844200 -77.193046 179.967695 4.506890 -0.352851 -0.032955 -0.268297 0.545034 -0.000000 0.000000 0.000000 0.000000 0.000000 0.000000 0.000000 14.097874 -6.982727 0.214323 68.944413 -0.247052 0.304875 0.638485 71.949379 -0.020757 -6.191606 4.513621 -0.262307 0.092556 -0.284709 -0.000000 0.000000 0.000000 0.000000 0.000000 0.000000 0.000000 
-10.375461 16.918941 0.262607 62.638301 84.758186 82.133182 6.481159 -2.763568 -4.783785 0.643877 -3.456781 -3.757243 -7.390988 -3.419954 0.095644 5.030906 -10.195818 -6.957869 -4.883155 -0.371284 0.118102 0.000000 0.000000 0.000000 0.247392 6.112269 1.110133 -55.190583 -19.073370 28.945191 -178.810863 -76.933285 179.968340 4.468213 -0.568024 -0.042024 -0.269217 0.555302 -0.000000 0.000000 0.000000 0.000000 0.000000 0.000000 0.000000 14.499920 -6.770377 0.290775 68.840686 0.041661 -0.198320 0.668800 70.514539 -0.025600 -7.455215 4.305132 -0.301728 0.105388 -0.278532 -0.000000 0.000000 0.000000 0.000000 0.000000 0.000000 0.000000 
-10.180995 16.884192 0.275662 67.556525 84.906966 86.813163 6.616321 -2.840279 -4.610405 0.657409 -3.537889 -3.736021 -7.452418 -3.504222 0.030478 4.862357 -9.902822 -6.955147 -5.002336 -0.379138 0.107408 0.000000 0.000000 0.000000 -0.074878 6.046826 1.184797 -54.805220 -19.097682 28.434382 -178.800202 -76.871292 179.967945 4.554293 -0.775591 -0.051968 -0.272773 0.564087 -0.000000 0.000000 0.000000 0.000000 0.000000 0.000000 0.000000 14.891122 -6.566914 0.358907 68.734726 0.397246 -0.593667 0.691712 69.051520 -0.030836 -8.836124 4.026283 -0.335458 0.118738 -0.271721 -0.000000 0.000000 0.000000 0.000000 0.000000 0.000000 0.000000 
-9.988073 16.857877 0.287876 73.896428 85.101881 92.932940 6.772511 -2.935366 -4.444139 0.679213 -3.639081 -3.718311 -7.499702 -3.609690 -0.037598 4.713289 -9.606713 -6.937224 -5.112808 -0.386458 0.101263 0.000000 0.000000 0.000000 -0.393982 5.977078 1.248255 -54.620532 -19.005918 27.970414 -178.813151 -77.010515 179.966392 4.774966 -0.959265 -0.062882 -0.279228 0.570673 -0.000000 0.000000 0.000000 0.000000 0.000000 0.000000 0.000000 15.261266 -6.377403 0.416079 68.637799 0.800199 -0.872900 0.706033 67.609682 -0.036268 -10.284544 3.671027 -0.357596 0.132123 -0.264407 -0.000000 0.000000 0.000000 0.000000 0.000000 0.000000 0.000000 
-9.796268 16.840015 0.299892 81.866619 85.319850 100.713068 6.961360 -3.041267 -4.298308 0.711410 -3.754627 -3.705912 -7.533316 -3.730070 -0.105497 4.584368 -9.320345 -6.909011 -5.212168 -0.393079 0.098656 0.000000 0.000000 0.000000 -0.695086 5.910052 1.297440 -54.643321 -18.798155 27.568764 -178.849978 -77.350013 179.963625 5.132185 -1.104897 -0.074769 -0.288426 0.574413 0.000000 0.000000 0.000000 0.000000 0.000000 0.000000 0.000000 15.601872 -6.206837 0.460239 68.562729 1.232642 -1.027824 0.711834 66.238332 -0.041678 -11.740824 3.242212 -0.363137 0.145109 -0.256817 0.000000 0.000000 0.000000 0.000000 0.000000 0.000000 0.000000 
-9.605199 16.830281 0.312343 91.344247 85.536471 110.040392 7.196782 -3.142255 -4.180789 0.755396 -3.870626 -3.699705 -7.555488 -3.850734 -0.171060 4.476433 -9.055481 -6.876651 -5.298559 -0.398859 0.098152 0.000000 0.000000 0.000000 -0.965504 5.856653 1.328855 -54.868787 -18.476573 27.235080 -178.909936 -77.880123 179.959705 5.619418 -1.201287 -0.086938 -0.299804 0.574803 0.000000 0.000000 0.000000 0.000000 0.000000 0.000000 0.000000 15.906981 -6.054163 0.490517 68.520797 1.678367 -1.051719 0.710514 64.985025 -0.046850 -13.141293 2.753088 -0.348881 0.157378 -0.249279 -0.000000 0.000000 0.000000 0.000000 0.000000 0.000000 0.000000 
-9.414511 16.828120 0.325780 101.606350 85.734122 120.200834 7.476240 -3.214293 -4.093108 0.808167 -3.963200 -3.699456 -7.569089 -3.947171 -0.232890 4.389723 -8.821658 -6.847711 -5.370536 -0.403656 0.097805 0.000000 0.000000 0.000000 -1.196820 5.833955 1.338543 -55.279598 -18.045147 26.966452 -178.991320 -78.584224 179.954783 6.223151 -1.240898 -0.098505 -0.312480 0.571477 0.000000 0.000000 0.000000 0.000000 0.000000 0.000000 0.000000 16.172513 -5.910725 0.507368 68.521302 2.124354 -0.939740 0.704662 63.890767 -0.051612 -14.423933 2.227434 -0.315122 0.168749 -0.242202 -0.000000 0.000000 0.000000 0.000000 0.000000 0.000000 0.000000 
-9.223928 16.832969 0.340428 111.511114 85.914036 130.058904 7.767993 -3.234583 -4.032807 0.861193 -4.007027 -3.704401 -7.575426 -3.993924 -0.291016 4.322248 -8.623789 -6.828524 -5.427105 -0.407358 0.095898 0.000000 0.000000 0.000000 -1.388159 5.857222 1.323879 -55.848205 -17.505069 26.750784 -179.091100 -79.438970 179.949115 6.921786 -1.218929 -0.107788 -0.325370 0.564223 -0.000000 0.000000 0.000000 0.000000 0.000000 0.000000 0.000000 16.393940 -5.763355 0.512226 68.570142 2.560799 -0.690963 0.697349 62.986878 -0.055819 -15.531069 1.698012 -0.265654 0.179081 -0.236025 -0.000000 0.000000 0.000000 0.000000 0.000000 0.000000 0.000000 
-9.033226 16.844097 0.356908 119.629082 86.060909 138.185829 7.973032 -3.197899 -3.995197 0.894182 -3.988665 -3.711878 -7.575028 -3.977846 -0.341872 4.277819 -8.468372 -6.826643 -5.468207 -0.409917 0.090272 0.000000 0.000000 0.000000 -1.535733 5.943460 1.284999 -56.533375 -16.875501 26.578337 -179.203916 -80.419589 179.943037 7.689225 -1.132824 -0.113101 -0.337585 0.552984 -0.000000 0.000000 0.000000 0.000000 0.000000 0.000000 0.000000 16.581186 -5.608708 0.504412 68.670395 2.986621 -0.300872 0.690927 62.292415 -0.059363 -16.420126 1.202688 -0.208176 0.188222 -0.231102 -0.000000 0.000000 0.000000 0.000000 0.000000 0.000000 0.000000 
-8.842379 16.860926 0.375030 125.295433 86.170308 143.909448 8.027627 -3.117982 -3.979062 0.896280 -3.916432 -3.722850 -7.565684 -3.908246 -0.392288 4.250958 -8.345163 -6.834876 -5.495178 -0.411524 0.082890 0.000000 0.000000 0.000000 -1.639650 6.060494 1.227079 -57.301452 -16.126709 26.417224 -179.323587 -81.483714 179.936952 8.491390 -0.985960 -0.112553 -0.348019 0.538167 -0.000000 0.000000 0.000000 0.000000 0.000000 0.000000 0.000000 16.731238 -5.440807 0.486108 68.826775 3.385389 0.205156 0.686300 61.818953 -0.062112 -17.042980 0.781131 -0.151884 0.195666 -0.227794 -0.000000 0.000000 0.000000 0.000000 0.000000 0.000000 0.000000 
-8.651113 16.883191 0.393187 129.428541 86.288969 148.150933 7.998141 -3.006045 -3.995997 0.882086 -3.807741 -3.735714 -7.549350 -3.801692 -0.426438 4.231735 -8.265850 -6.868220 -5.506530 -0.411939 0.069337 0.000000 0.000000 0.000000 -1.749806 6.266623 1.162412 -58.105831 -15.364152 26.290117 -179.443598 -82.632324 179.931182 9.298604 -0.774974 -0.104136 -0.357166 0.520419 -0.000000 0.000000 0.000000 0.000000 0.000000 0.000000 0.000000 16.831309 -5.276100 0.450770 69.013769 3.785665 0.865237 0.684551 61.551433 -0.064041 -17.412057 0.475151 -0.107580 0.201647 -0.226232 -0.000000 0.000000 0.000000 0.000000 0.000000 0.000000 0.000000 
-8.459852 16.910263 0.412541 131.110629 86.354065 149.970897 7.789113 -2.884988 -4.030391 0.833359 -3.676364 -3.749632 -7.526659 -3.672887 -0.454959 4.227688 -8.216693 -6.914399 -5.506211 -0.411563 0.052948 0.000000 0.000000 0.000000 -1.841221 6.503401 1.094919 -58.913134 -14.531094 26.155351 -179.558670 -83.812823 179.926108 10.074231 -0.510829 -0.087059 -0.363864 0.500268 -0.000000 0.000000 0.000000 0.000000 0.000000 0.000000 0.000000 16.904351 -5.112261 0.403264 69.239772 4.179242 1.638554 0.685417 61.479525 -0.065001 -17.492865 0.312132 -0.082765 0.205427 -0.226669 -0.000000 0.000000 0.000000 0.000000 0.000000 0.000000 0.000000 
-8.268662 16.942000 0.431747 131.216596 86.402684 150.240069 7.476282 -2.757888 -4.081781 0.764742 -3.531362 -3.765758 -7.499644 -3.530709 -0.480216 4.229120 -8.184717 -6.969638 -5.495503 -0.410484 0.034622 0.000000 0.000000 0.000000 -1.941336 6.766028 1.032529 -59.697008 -13.638641 25.999009 -179.665570 -84.998176 179.921982 10.785605 -0.200743 -0.061117 -0.367878 0.478493 -0.000000 0.000000 0.000000 0.000000 0.000000 0.000000 0.000000 16.939580 -4.941476 0.346030 69.489388 4.571404 2.518198 0.689199 61.579559 -0.064955 -17.296103 0.315147 -0.082738 0.206886 -0.229257 -0.000000 0.000000 0.000000 0.000000 0.000000 0.000000 0.000000 
-8.077836 16.978137 0.450457 129.904988 86.434299 149.103910 7.073058 -2.630416 -4.136549 0.678207 -3.378492 -3.780292 -7.470893 -3.380517 -0.496903 4.237710 -8.173370 -7.038964 -5.475487 -0.408681 0.012680 0.000000 0.000000 0.000000 -2.064968 7.069961 0.980005 -60.428719 -12.729527 25.823884 -179.762173 -86.174725 179.918964 11.408360 0.145504 -0.026905 -0.369364 0.455719 -0.000000 0.000000 0.000000 0.000000 0.000000 0.000000 0.000000 16.945994 -4.772346 0.280218 69.747476 4.992874 3.513440 0.696313 61.814869 -0.063900 -16.848565 0.492233 -0.107701 0.206027 -0.233959 -0.000000 0.000000 0.000000 0.000000 0.000000 0.000000 0.000000 
-7.887614 17.018557 0.467985 127.640022 86.464573 147.017549 6.620024 -2.502178 -4.186122 0.581014 -3.220016 -3.794122 -7.441530 -3.224761 -0.513347 4.248399 -8.162721 -7.111860 -5.448367 -0.406351 -0.010046 0.000000 0.000000 0.000000 -2.220195 7.387890 0.940305 -61.097553 -11.782367 25.607808 -179.848133 -87.313326 179.917151 11.919507 0.513372 0.013678 -0.367992 0.432625 -0.000000 0.000000 0.000000 0.000000 0.000000 0.000000 0.000000 16.920428 -4.589955 0.211610 70.005379 5.438847 4.599688 0.706463 62.161061 -0.061859 -16.173693 0.837907 -0.153958 0.202720 -0.240744 -0.000000 0.000000 0.000000 0.000000 0.000000 0.000000 0.000000 
-7.698206 17.063035 0.483902 124.679669 86.496122 144.228231 6.137369 -2.375280 -4.217988 0.476796 -3.058931 -3.803079 -7.412874 -3.065930 -0.522285 4.263492 -8.164225 -7.195387 -5.414434 -0.403400 -0.035722 0.000000 0.000000 0.000000 -2.417517 7.738983 0.914181 -61.691311 -10.844616 25.362822 -179.924022 -88.412182 179.916515 12.309171 0.889389 0.058041 -0.364217 0.409760 -0.000000 0.000000 0.000000 0.000000 0.000000 0.000000 0.000000 16.870615 -4.410733 0.141766 70.246383 5.945926 5.795183 0.719936 62.579713 -0.058944 -15.323456 1.331865 -0.214211 0.197324 -0.249280 -0.000000 0.000000 0.000000 0.000000 0.000000 0.000000 0.000000 
